<svg width="1248" height="528" viewBox="0 0 1248 528" fill="none" xmlns="http://www.w3.org/2000/svg">
  <path d="M648 5.8519L647.841 6.32616L647.873 6.33676L647.906 6.34304L648 5.8519ZM648 5.8519C647.841 6.32616 647.841 6.32608 647.841 6.32584L647.836 6.32449L647.819 6.31876L647.747 6.29545C647.683 6.27477 647.587 6.24396 647.458 6.204C647.201 6.12407 646.817 6.00751 646.311 5.86203C645.299 5.57107 643.798 5.16445 641.853 4.70388C637.963 3.7827 632.294 2.64586 625.19 1.78674C610.98 0.0684239 591.034 -0.538239 568.095 3.91038C522.236 12.8039 464.358 41.9126 416.43 122.887L416.209 123.261C368.452 203.948 368.405 204.028 361.608 211.542L361.603 211.548C354.865 218.997 341.345 233.945 266.315 344.918C191.224 455.981 124.673 501.125 76.8333 518.48C69.9189 520.989 63.3963 522.916 57.2964 524.378H1246.74L1244.55 522.314C1242.48 520.367 1239.38 517.455 1235.28 513.593C1227.07 505.87 1214.82 494.349 1198.65 479.158C1166.31 448.777 1118.31 403.717 1055.66 345.003C992.949 286.24 976.913 253.39 963.552 223.866C963.094 222.853 962.638 221.844 962.184 220.838C956.035 207.209 950.153 194.172 940.09 179.407C929.284 163.555 913.648 145.696 887.671 123.009C835.731 77.6479 775.79 48.4787 728.822 30.6493C705.341 21.7354 685.107 15.6579 670.745 11.8092C663.565 9.88488 657.852 8.51786 653.936 7.63214C651.978 7.18929 650.47 6.86677 649.451 6.65508C648.942 6.54924 648.555 6.4711 648.296 6.41949C648.166 6.39369 648.068 6.37451 648.003 6.36182L647.93 6.34762L647.912 6.34414L647.907 6.34329C647.907 6.34311 647.906 6.34304 648 5.8519ZM3.67378 525.378H47.5851C36.8547 527.267 27.7396 527.682 20.4561 527.436C13.8852 527.213 8.80328 526.453 5.36928 525.75C4.75026 525.623 4.18478 525.498 3.67378 525.378Z" fill="yellow" fill-opacity="0.5"/>
</svg>
